Coordinates
version=1
nRows=17
nColumns=24
inDegrees=yes

Units are S.I. units (second, meters, Newtons, ...)
Angles are in degrees.

endheader
time	pelvis_tilt	pelvis_list	pelvis_rotation	pelvis_tx	pelvis_ty	pelvis_tz	hip_flexion_r	hip_adduction_r	hip_rotation_r	knee_angle_r	ankle_angle_r	subtalar_angle_r	mtp_angle_r	hip_flexion_l	hip_adduction_l	hip_rotation_l	knee_angle_l	ankle_angle_l	subtalar_angle_l	mtp_angle_l	lumbar_extension	lumbar_bending	lumbar_rotation
      3.96500000	     -3.95253217	      2.68004690	      4.88973502	     -0.34264689	     -0.03406214	     -0.11627412	     34.76671544	     -1.76044585	     -1.75557029	    -17.71233385	      1.89224242	      9.05401261	     11.04691199	     -9.02125889	      6.40667722	     -6.29451837	    -25.58290725	     14.19193607	     20.83048972	     -6.40334293	      2.72113674	     -5.51480430	     -9.48753703
      3.97000000	     -4.03657610	      2.40948216	      4.95842458	     -0.33510520	     -0.03454054	     -0.11555141	     34.70373498	     -1.39677196	     -1.78752990	    -18.33613250	      1.45752715	      8.80522543	     11.01455511	     -8.74951141	      5.80361961	     -6.72089647	    -26.80323421	     13.34874176	     21.32502339	     -5.55259330	      3.00803228	     -5.23084175	     -9.49400654
      3.97500000	     -4.03710026	      2.09401241	      5.00225311	     -0.32749169	     -0.03472092	     -0.11494746	     34.50954567	     -0.98648455	     -1.85213185	    -18.82770240	      0.63206128	      8.41445965	     11.45437228	     -8.67442773	      5.20847882	     -6.85782627	    -27.53176972	     11.25105583	     21.18256891	     -0.73969907	      3.21943600	     -4.85570283	     -9.41997466
      3.98000000	     -4.09625214	      1.72426175	      5.02618600	     -0.31983769	     -0.03494689	     -0.11421555	     34.39095138	     -0.49330348	     -1.79701695	    -19.36519438	     -0.06096435	      8.13976450	     11.36671013	     -8.42273319	      4.49810943	     -7.20697630	    -28.55052802	      9.56000202	     21.37026558	      2.32395272	      3.50781590	     -4.44443963	     -9.35867673
      3.98500000	     -4.20553877	      1.35385455	      4.93118949	     -0.31221934	     -0.03522690	     -0.11328704	     34.38148224	      0.08730221	     -1.58893195	    -19.93694617	     -0.92517308	      7.71369148	     11.27895925	     -8.06969628	      3.77583886	     -7.69188188	    -29.66185289	      7.90644997	     21.66258665	      4.84821222	      3.84532610	     -4.02338576	     -9.07206764
      3.99000000	     -4.27839284	      0.94251580	      4.93049388	     -0.30461189	     -0.03532729	     -0.11250902	     34.31533283	      0.63243060	     -1.53960175	    -20.49986532	     -1.66597590	      7.59329104	     11.17536472	     -7.72698233	      2.98752457	     -8.05126638	    -30.68012880	      5.77065831	     21.79211087	      8.65060439	      4.13656361	     -3.57175988	     -8.96112667
      3.99500000	     -4.37648066	      0.52923923	      4.88433937	     -0.29691255	     -0.03538619	     -0.11167133	     34.27893110	      1.21794712	     -1.39730515	    -21.07588785	     -2.38013449	      7.46066984	     10.94250513	     -7.33932538	      2.19820282	     -8.40170792	    -31.72467276	      3.56467856	     21.90620831	     11.80043807	      4.47860059	     -3.11697297	     -8.79683307
      4.00000000	     -4.46733933	      0.10677729	      4.83426715	     -0.28928668	     -0.03543833	     -0.11084509	     34.25310331	      1.81435366	     -1.22445945	    -21.68729001	     -3.02722505	      7.41662579	     10.72703924	     -6.90570128	      1.39413501	     -8.71733410	    -32.81104143	      1.23368467	     21.92554964	     14.95496975	      4.79219668	     -2.64738037	     -8.61721781
      4.00500000	     -4.50914884	     -0.31934522	      4.77902433	     -0.28163770	     -0.03542622	     -0.11006132	     34.17406534	      2.40351914	     -1.10923588	    -22.31696931	     -3.52417493	      7.56112305	     10.60795874	     -6.50013227	      0.58249935	     -9.00003938	    -33.89201738	     -1.25973338	     21.86214426	     18.00681105	      5.05729334	     -2.16679318	     -8.44130302
      4.01000000	     -4.60012746	     -0.71048624	      4.65466224	     -0.27399498	     -0.03548205	     -0.10918266	     34.14931856	      3.02287320	     -0.79431469	    -22.95377966	     -4.05382027	      7.45194855	     10.46225343	     -6.01138504	     -0.16975211	     -9.27002463	    -35.01977738	     -3.81091701	     21.66376258	     20.35376549	      5.37155123	     -1.71878986	     -8.17906787
      4.01500000	     -4.69358331	     -1.12174853	      4.53489012	     -0.26634231	     -0.03556473	     -0.10831319	     34.11323697	      3.64704806	     -0.55758176	    -23.57390346	     -4.48332596	      7.37928938	     10.43038432	     -5.47270868	     -0.94849172	     -9.50831533	    -36.19954889	     -6.42218271	     21.40813132	     22.33894675	      5.69251912	     -1.25527283	     -7.93670073
      4.02000000	     -4.80958892	     -1.52690441	      4.39963838	     -0.25872665	     -0.03569111	     -0.10742625	     34.08329781	      4.27904814	     -0.29240531	    -24.16194904	     -4.89680260	      7.13422784	     10.43436911	     -4.85937200	     -1.70253700	     -9.69506716	    -37.44763294	     -9.05844661	     20.98841279	     23.60357443	      6.03180588	     -0.80145331	     -7.68378551
      4.02500000	     -4.83046019	     -1.88315532	      4.27502613	     -0.25125049	     -0.03570674	     -0.10661008	     33.93073867	      4.85893824	     -0.03815329	    -24.72823631	     -5.20170077	      6.83379375	     10.41040682	     -4.29455481	     -2.36002969	     -9.75087753	    -38.76443457	    -11.68364220	     20.28943793	     23.63054457	      6.23421637	     -0.38896504	     -7.45026018
      4.03000000	     -4.93994222	     -2.26957723	      4.05327816	     -0.24371568	     -0.03590060	     -0.10565473	     33.84885801	      5.50956550	      0.22258900	    -25.21902345	     -5.51119272	      6.45017575	     10.76804670	     -3.62820732	     -3.06490675	     -9.96537637	    -40.01982924	    -14.58818198	     19.39781442	     24.47349828	      6.55009067	      0.06029943	     -7.11455987
      4.03500000	     -4.91939775	     -2.65043242	      3.88534345	     -0.23632758	     -0.03593927	     -0.10477497	     33.59110014	      6.13847572	      0.42731781	    -25.68091308	     -5.63704272	      6.04267508	     10.81538426	     -3.02891037	     -3.73793695	    -10.05627323	    -41.38225462	    -17.36746703	     18.27021161	     23.85950346	      6.69213917	      0.49963371	     -6.86820511
      4.04000000	     -4.94971524	     -3.02903374	      3.65770482	     -0.22903551	     -0.03606103	     -0.10381430	     33.37339811	      6.79906355	      0.67192684	    -26.10073095	     -5.76686645	      5.55747489	     10.95451235	     -2.33502749	     -4.39293752	    -10.18986345	    -42.76954140	    -20.21835044	     16.87957318	     22.96351595	      6.87384946	      0.94117479	     -6.54939520
      4.04500000	     -5.08504298	     -3.38891368	      3.34908792	     -0.22179058	     -0.03635292	     -0.10276660	     33.24863855	      7.47269004	      0.96732502	    -26.43433740	     -6.01564142	      4.94761590	     11.81738377	     -1.47989341	     -5.01879542	    -10.42089702	    -44.27724993	    -22.86174997	     15.32611922	     20.87492144	      7.16905549	      1.36608373	     -6.13143590
